<?xml version="1.0" standalone="no"?><!DOCTYPE svg PUBLIC "-//W3C//DTD SVG 1.1//EN" "http://www.w3.org/Graphics/SVG/1.1/DTD/svg11.dtd"><svg class="icon" width="64px" height="64.00px" viewBox="0 0 1024 1024" version="1.1" xmlns="http://www.w3.org/2000/svg"><path fill="#b4b4b4" d="M915.0133 423.603661l-46.282703 42.711195v385.805096h24.718186v49.033283h63.347313V928.098496H31.354858v-26.945261h79.842661v-49.033283h24.718186v-386.860233l-45.131537-41.656058H30.839482l94.221113-158.291519h169.661402v46.739679h416.205364V265.312142h169.674046l94.360192 158.291519h-59.948299zM776.950596 901.153235h89.540282v-22.088022H776.950596v22.088022z m64.826612-49.033283V473.359734h-40.120768v378.760519h40.120768z m-132.53656 0h24.705543v49.033283h16.046802v-49.033283h24.705542v-196.124703h-65.457887v196.124703z m0-223.069964h65.457887v-22.457997h-65.457887v22.457997z m0-49.398742h65.457887v-106.293619h-65.457887v106.293619z m-91.792644 321.501989h89.540282v-22.088022h-89.540282v22.088022z m64.83474-49.033283V473.359734h-40.120768v378.760519h40.120768z m-292.832687 0h24.705844v49.033283h176.334199v-49.033283h24.718186v-196.124703H389.452165v196.124703h-0.002108z m0-223.069964h225.75853v-22.457997H389.452165v22.457997h-0.002108z m0-49.398742h225.75853v-106.293619H389.452165v106.293619h-0.002108z m-91.796557 321.501989h89.548711v-22.088022H297.6535v22.088022z m64.843168-49.033283V473.359734h-40.137626v378.760519h40.137626z m-132.548902 0h24.718186v49.033283h16.032052v-49.033283h24.705542v-196.124703H229.947766v196.124703z m0-223.069964h65.456081v-22.457997H229.947766v22.457997z m0-49.398742h65.456081v-106.293619H229.947766v106.293619zM138.155122 901.153235h89.555033v-22.088022H138.155122v22.088022z m64.836847-49.033283V473.359734H162.873309v378.760519h40.11866zM155.228161 446.414473h695.340846l24.714272-22.810812H130.509975l24.718186 22.810812z m710.049536-154.159177h-127.396646v46.739679H267.766501V292.257403H140.38009l-62.12781 104.402803h849.271535l-62.246118-104.402803v-0.002107z m-462.136757 195.339296h199.515589v76.333768h-199.515589v-76.335875 0.002107z m26.957905 49.388507h145.599779v-22.445353h-145.599779v22.445353z m272.16526-317.745944v81.988757H303.526741V219.237155L232.546623 178.590775H152.830699l82.578489-86.729796h534.968255l82.584811 86.727689h-79.718031l-70.980118 40.646379v0.002108zM330.482538 274.282758h344.824264V224.894251H330.482538v49.388507z m-9.88306-76.331661h364.595803l33.826074-19.360322H286.771598l33.82788 19.360322zM758.82212 118.806542H246.966618L215.693944 151.647622H790.096902l-31.274782-32.84108z" /></svg>