<?xml version="1.0" standalone="no"?><!DOCTYPE svg PUBLIC "-//W3C//DTD SVG 1.1//EN" "http://www.w3.org/Graphics/SVG/1.1/DTD/svg11.dtd"><svg class="icon" width="64px" height="64.00px" viewBox="0 0 1024 1024" version="1.1" xmlns="http://www.w3.org/2000/svg"><path fill="#b4b4b4" d="M1017.6 889.6c-6.4-12.8-6.4-19.2-6.4-19.2L889.6 633.6l-6.4-6.4-6.4-6.4C864 601.6 851.2 576 819.2 576h-128c-19.2 0-25.6 12.8-25.6 25.6s12.8 25.6 25.6 25.6h128s6.4 6.4 12.8 19.2l6.4 6.4L960 870.4s-6.4 6.4-12.8 6.4H76.8s-6.4 0-6.4-6.4l128-217.6s6.4-6.4 6.4-12.8 6.4-6.4 0-6.4H320c19.2 0 25.6-12.8 25.6-25.6s-12.8-25.6-25.6-25.6H204.8c-32 0-44.8 19.2-51.2 32l-6.4 6.4s-6.4 6.4-6.4 12.8L6.4 864v12.8c0 38.4 32 64 70.4 64h870.4c32 6.4 70.4-12.8 70.4-51.2zM512 403.2c70.4 0 128-57.6 128-128s-57.6-128-128-128-128 57.6-128 128 57.6 128 128 128z m0-198.4c38.4 0 70.4 32 70.4 70.4-6.4 38.4-38.4 70.4-70.4 70.4-38.4 0-70.4-32-70.4-70.4 0-38.4 32-70.4 70.4-70.4zM441.6 684.8c25.6 32 44.8 44.8 70.4 44.8s44.8-12.8 70.4-44.8c70.4-76.8 160-185.6 192-307.2 25.6-83.2 6.4-172.8-44.8-249.6C678.4 64 595.2 25.6 512 25.6 416 25.6 339.2 64 281.6 128c-51.2 64-64 160-32 249.6 25.6 83.2 89.6 192 192 307.2zM326.4 160c32-51.2 96-76.8 179.2-76.8 64 0 128 32 166.4 83.2 44.8 57.6 64 134.4 44.8 198.4-32 115.2-115.2 217.6-185.6 281.6L505.6 672s-6.4-6.4-6.4-12.8c-6.4-6.4-6.4-12.8-12.8-12.8l-12.8-12.8c-44.8-51.2-140.8-166.4-172.8-275.2C281.6 288 288 217.6 326.4 160z" /></svg>