<?xml version="1.0" standalone="no"?><!DOCTYPE svg PUBLIC "-//W3C//DTD SVG 1.1//EN" "http://www.w3.org/Graphics/SVG/1.1/DTD/svg11.dtd"><svg class="icon" width="64px" height="64.00px" viewBox="0 0 1024 1024" version="1.1" xmlns="http://www.w3.org/2000/svg"><path fill="#b4b4b4" d="M546.22435555 127.23086222l235.41987556 0L622.24611555 460.88192l0.94663112 1.74762667 36.91861333 0 148.47544889-310.71345778 146.87345778 310.71345778 38.30215111 0-158.52430223-335.39868445 0.07281778 0L835.31093333 91.40451555 572.94848 91.40451555 572.94848 68.46691555C572.94848 31.98520889 543.23882667 2.27555555 506.75712 2.27555555 470.20259555 2.27555555 440.56576 31.98520889 440.56576 68.46691555l0 22.86478223L186.21326222 91.33169778l0 35.82634667 3.49525333 0-159.47093333 333.72387555 0.94663111 1.74762667 36.91861334 0 148.47544888-310.71345778L363.45173333 462.62954667l38.30215112 0L243.3024 127.23086222l221.87576889 0 0 773.76170667-278.89208889 83.66762666L186.28608 1021.72444445l649.02485333 0 0-37.0642489L546.22435555 900.99256889 546.22435555 127.23086222z"  /><path fill="#b4b4b4" d="M401.82670222 512c0-2.11171555-0.21845333-4.15061333-0.29127111-6.18951111L30.60167111 505.81048889C30.52885333 507.84938667 30.3104 509.88828445 30.3104 512c0 102.60024889 83.15790222 185.83096889 185.75815111 185.83096889C318.6688 697.83096889 401.82670222 614.60024889 401.82670222 512z"  /><path fill="#b4b4b4" d="M622.53738667 505.81048889C622.46456889 507.84938667 622.24611555 509.88828445 622.24611555 512c0 102.60024889 83.23072 185.83096889 185.75815112 185.83096889S993.6896 614.60024889 993.6896 512c0-2.11171555-0.21845333-4.15061333-0.29127111-6.18951111L622.53738667 505.81048889z"  /></svg>