<?xml version="1.0" standalone="no"?><!DOCTYPE svg PUBLIC "-//W3C//DTD SVG 1.1//EN" "http://www.w3.org/Graphics/SVG/1.1/DTD/svg11.dtd"><svg class="icon" width="64px" height="64.00px" viewBox="0 0 1024 1024" version="1.1" xmlns="http://www.w3.org/2000/svg"><path fill="#b4b4b4" d="M907.786942 839.798225c-0.879393-10.699887-3.017667-21.03853-6.26765-30.87362C865.728127 662.787281 748.728747 548.46865 601.036977 516.540489c-1.239421 0.474361-2.489788 0.930478-3.73894 1.386594l0 0c1.249151-0.456117 2.499519-0.912233 3.73894-1.386594 92.578289-35.539389 158.353951-125.299486 158.353951-230.372937 0-136.097894-110.489684-246.587578-246.63623-246.587578-136.189117 0-246.773674 110.489684-246.773674 246.587578 0 106.247191 67.310646 196.852624 161.569877 231.555191 1.654183 0.608155 3.312015 1.198066 4.984442 1.772165-1.667562-0.574099-3.330259-1.16401-4.984442-1.772165-0.279752 0.066897-0.564368 0.137443-0.845336 0.20434-1.249151-0.456117-2.499519-0.912233-3.743805-1.386594C275.269991 548.46865 158.273043 662.787281 122.480662 808.924605c-3.249983 9.83509-5.388257 20.178598-6.261569 30.87362-0.300429 3.648933-0.460982 7.335571-0.460982 11.061132 0 73.761959 59.79871 133.560669 133.560669 133.560669L511.343777 984.420026l1.311183 0 262.024996 0c73.761959 0 133.561886-59.79871 133.561886-133.560669C908.243059 847.133797 908.084938 843.447158 907.786942 839.798225L907.786942 839.798225zM437.557492 521.16247c-0.917098-0.294347-1.829332-0.60329-2.741565-0.907368C435.72816 520.55918 436.640393 520.868123 437.557492 521.16247L437.557492 521.16247zM463.266655 527.871641c-0.066897-0.014596-0.133794-0.029191-0.199475-0.042571C463.134078 527.84245 463.199758 527.857045 463.266655 527.871641L463.266655 527.871641zM458.045033 526.750203c-0.166635-0.042571-0.338134-0.085142-0.503553-0.124064C457.706898 526.669926 457.878398 526.707632 458.045033 526.750203L458.045033 526.750203zM452.867197 525.514431c-0.318673-0.080277-0.637347-0.165418-0.954804-0.246911C452.233499 525.349012 452.547307 525.434154 452.867197 525.514431L452.867197 525.514431zM447.724635 524.170407c-0.451251-0.119198-0.897637-0.256642-1.348889-0.380705C446.826997 523.913765 447.273383 524.051209 447.724635 524.170407L447.724635 524.170407zM442.617345 522.721781c-0.627616-0.186096-1.249151-0.385571-1.871903-0.58018C441.36941 522.33621 441.989729 522.535685 442.617345 522.721781L442.617345 522.721781zM512.656177 963.343791l0-1.306318-0.655592 0.655592-0.655592 0.650726-115.48264-106.218 86.642692-203.77465c-27.357265-28.374101-45.626255-77.368321-45.626255-77.368321l-0.232315-2.998206c27.267258-22.516348 52.88155-29.296065 74.698519-28.583307l0 0.047436c0.218936-0.00973 0.436656-0.014596 0.655592-0.024326 0.218936 0.00973 0.441521 0.014596 0.655592 0.024326l0-0.047436c21.823051-0.712758 47.436126 6.066959 74.703384 28.583307l-0.232315 2.998206c0 0-18.26899 48.999085-45.626255 77.368321l86.637827 203.77465L512.656177 963.343791 512.656177 963.343791z" /></svg>