<?xml version="1.0" standalone="no"?><!DOCTYPE svg PUBLIC "-//W3C//DTD SVG 1.1//EN" "http://www.w3.org/Graphics/SVG/1.1/DTD/svg11.dtd"><svg class="icon" width="64px" height="64.00px" viewBox="0 0 1024 1024" version="1.1" xmlns="http://www.w3.org/2000/svg"><path fill="#b4b4b4" d="M496 372.576V205.824l0.416-3.584 0.192-0.832c-10.976-39.552-31.552-57.408-63.52-57.408-34.016 0-55.136 20.256-65.504 65.376a16 16 0 0 1-31.168-7.136c13.44-58.624 46.4-90.24 96.672-90.24 35.648 0 62.56 15.84 80 45.92 17.472-30.08 44.384-45.92 80-45.92 50.336 0 83.264 31.616 96.704 90.24a16 16 0 1 1-31.2 7.136c-10.336-45.12-31.456-65.376-65.504-65.376-31.936 0-52.512 17.856-63.488 57.408l0.192 0.832 0.416 3.584v163.136c28-42.88 68.704-64.96 121.568-64.96 80.96 0 133.376 51.84 155.392 150.72a16 16 0 0 1-31.232 6.976c-19.008-85.408-59.744-125.696-124.16-125.696-62.208 0-102.368 37.6-122.144 117.12l0.192 0.832 0.384 3.488v226.528a16 16 0 0 1-11.744 15.424 15.936 15.936 0 0 1-22.464-14.656V458.24l0.384-3.456 0.352-1.632c-20.192-80-70.56-117.12-132.96-117.12-64.416 0-105.152 40.32-124.16 125.696a16 16 0 1 1-31.232-6.944C230.368 355.84 282.816 304 363.776 304c54.56 0 100.992 23.2 132.224 68.576zM688 928h-352a240.096 240.096 0 0 1-235.2-192h822.4a240.096 240.096 0 0 1-235.2 192zM143.904 768a208.192 208.192 0 0 0 192.096 128h352a208.192 208.192 0 0 0 192.096-128H143.904z" /></svg>