<?xml version="1.0" standalone="no"?><!DOCTYPE svg PUBLIC "-//W3C//DTD SVG 1.1//EN" "http://www.w3.org/Graphics/SVG/1.1/DTD/svg11.dtd"><svg class="icon" width="64px" height="64.00px" viewBox="0 0 1024 1024" version="1.1" xmlns="http://www.w3.org/2000/svg"><path d="M785.48 672.21H659.6c-96.91 0-176.21-79.29-176.21-176.21 0-96.91 79.29-176.21 176.21-176.21h125.88c96.91 0 176.21 79.29 176.21 176.21-0.01 96.91-79.3 176.21-176.21 176.21z" fill="#AFC9E2" /><path d="M779.13 348.47c3.05-15.19 4.65-30.9 4.65-46.98 0-131.24-106.39-237.62-237.62-237.62S308.53 170.26 308.53 301.49c0 10.99 0.76 21.79 2.21 32.38-21.22-9.06-44.58-14.08-69.12-14.08-97.32 0-176.21 78.89-176.21 176.21 0 1.31 0.02 2.62 0.05 3.93-0.03 1.3-0.05 2.59-0.05 3.9 0 92.61 75.77 168.37 168.37 168.37H714.4c92.61 0 168.37-75.77 168.37-168.37 0.02-69.71-42.92-129.87-103.64-155.36z" fill="#C0DCFA" /><path d="M724.9 748.9h-26.01l18.39-18.39c3.91-3.9 3.91-10.23 0-14.14-3.9-3.9-10.23-3.9-14.14 0l-18.39 18.39v-26.02c0-5.52-4.48-10-10-10s-10 4.48-10 10v26.02l-18.39-18.39c-3.9-3.9-10.23-3.9-14.14 0s-3.91 10.23 0 14.14l18.39 18.39H624.6c-5.52 0-10 4.48-10 10s4.48 10 10 10h26.01l-18.39 18.39c-3.91 3.9-3.91 10.23 0 14.14 1.95 1.95 4.51 2.93 7.07 2.93s5.12-0.98 7.07-2.93l18.39-18.39v26c0 5.52 4.48 10 10 10 5.53 0 10-4.47 10-10v-26l18.39 18.39c1.95 1.95 4.51 2.93 7.07 2.93s5.12-0.98 7.07-2.93c3.91-3.9 3.91-10.23 0-14.14l-18.39-18.39h26.01c5.52 0 10-4.48 10-10s-4.48-10-10-10zM552.7 748.9h-26.01l18.39-18.39c3.91-3.9 3.91-10.23 0-14.14-3.9-3.9-10.23-3.9-14.14 0l-18.39 18.39v-26.02c0-5.52-4.48-10-10-10s-10 4.48-10 10v26.02l-18.39-18.39c-3.9-3.9-10.23-3.9-14.14 0s-3.91 10.23 0 14.14l18.39 18.39H452.4c-5.52 0-10 4.48-10 10s4.48 10 10 10h26.01l-18.39 18.39c-3.91 3.9-3.91 10.23 0 14.14 1.95 1.95 4.51 2.93 7.07 2.93s5.12-0.98 7.07-2.93l18.39-18.39v26c0 5.52 4.48 10 10 10 5.53 0 10-4.47 10-10v-26l18.39 18.39c1.95 1.95 4.51 2.93 7.07 2.93s5.12-0.98 7.07-2.93c3.91-3.9 3.91-10.23 0-14.14l-18.39-18.39h26.01c5.52 0 10-4.48 10-10s-4.48-10-10-10zM380.5 748.9h-26.01l18.39-18.39c3.91-3.9 3.91-10.23 0-14.14-3.9-3.9-10.23-3.9-14.14 0l-18.39 18.39v-26.02c0-5.52-4.48-10-10-10s-10 4.48-10 10v26.02l-18.39-18.39c-3.9-3.9-10.23-3.9-14.14 0s-3.91 10.23 0 14.14l18.39 18.39H280.2c-5.52 0-10 4.48-10 10s4.48 10 10 10h26.01l-18.39 18.39c-3.91 3.9-3.91 10.23 0 14.14 1.95 1.95 4.51 2.93 7.07 2.93s5.12-0.98 7.07-2.93l18.39-18.39v26c0 5.52 4.48 10 10 10 5.53 0 10-4.47 10-10v-26l18.39 18.39c1.95 1.95 4.51 2.93 7.07 2.93s5.12-0.98 7.07-2.93c3.91-3.9 3.91-10.23 0-14.14l-18.39-18.39h26.01c5.52 0 10-4.48 10-10s-4.48-10-10-10zM724.9 889.59h-26.01l18.39-18.39c3.91-3.9 3.91-10.23 0-14.14-3.9-3.9-10.23-3.9-14.14 0l-18.39 18.39v-26.02c0-5.52-4.48-10-10-10s-10 4.48-10 10v26.02l-18.39-18.39c-3.9-3.9-10.23-3.9-14.14 0s-3.91 10.23 0 14.14l18.39 18.39H624.6c-5.52 0-10 4.48-10 10s4.48 10 10 10h26.01l-18.39 18.39c-3.91 3.9-3.91 10.23 0 14.14 1.95 1.95 4.51 2.93 7.07 2.93s5.12-0.98 7.07-2.93l18.39-18.39v26c0 5.52 4.48 10 10 10 5.53 0 10-4.47 10-10v-26l18.39 18.39c1.95 1.95 4.51 2.93 7.07 2.93s5.12-0.98 7.07-2.93c3.91-3.9 3.91-10.23 0-14.14l-18.39-18.39h26.01c5.52 0 10-4.48 10-10s-4.48-10-10-10zM552.7 889.59h-26.01l18.39-18.39c3.91-3.9 3.91-10.23 0-14.14-3.9-3.9-10.23-3.9-14.14 0l-18.39 18.39v-26.02c0-5.52-4.48-10-10-10s-10 4.48-10 10v26.02l-18.39-18.39c-3.9-3.9-10.23-3.9-14.14 0s-3.91 10.23 0 14.14l18.39 18.39H452.4c-5.52 0-10 4.48-10 10s4.48 10 10 10h26.01l-18.39 18.39c-3.91 3.9-3.91 10.23 0 14.14 1.95 1.95 4.51 2.93 7.07 2.93s5.12-0.98 7.07-2.93l18.39-18.39v26c0 5.52 4.48 10 10 10 5.53 0 10-4.47 10-10v-26l18.39 18.39c1.95 1.95 4.51 2.93 7.07 2.93s5.12-0.98 7.07-2.93c3.91-3.9 3.91-10.23 0-14.14l-18.39-18.39h26.01c5.52 0 10-4.48 10-10s-4.48-10-10-10zM380.5 889.59h-26.01l18.39-18.39c3.91-3.9 3.91-10.23 0-14.14-3.9-3.9-10.23-3.9-14.14 0l-18.39 18.39v-26.02c0-5.52-4.48-10-10-10s-10 4.48-10 10v26.02l-18.39-18.39c-3.9-3.9-10.23-3.9-14.14 0s-3.91 10.23 0 14.14l18.39 18.39H280.2c-5.52 0-10 4.48-10 10s4.48 10 10 10h26.01l-18.39 18.39c-3.91 3.9-3.91 10.23 0 14.14 1.95 1.95 4.51 2.93 7.07 2.93s5.12-0.98 7.07-2.93l18.39-18.39v26c0 5.52 4.48 10 10 10 5.53 0 10-4.47 10-10v-26l18.39 18.39c1.95 1.95 4.51 2.93 7.07 2.93s5.12-0.98 7.07-2.93c3.91-3.9 3.91-10.23 0-14.14l-18.39-18.39h26.01c5.52 0 10-4.48 10-10s-4.48-10-10-10z" fill="#43A3FB" /></svg>