<?xml version="1.0" standalone="no"?><!DOCTYPE svg PUBLIC "-//W3C//DTD SVG 1.1//EN" "http://www.w3.org/Graphics/SVG/1.1/DTD/svg11.dtd"><svg t="1626448035238" class="icon" viewBox="0 0 1024 1024" version="1.1" xmlns="http://www.w3.org/2000/svg" p-id="1988" xmlns:xlink="http://www.w3.org/1999/xlink" width="64" height="64"><defs><style type="text/css"></style></defs><path d="M414.4 211.2c32-10.5 64.6-16.8 97.2-19 67.6-7.5 135.1 6.2 191.7 41.5 26.1 14.5 50 32.6 71.1 53.7 138 138 125.8 373.8-27.2 526.7-107.5 107.6-256 145.6-382.7 110.7 84.8-2.7 171.8-38.6 239.9-106.7 1.7-1.7 3.5-3.5 5.2-5.3-32 10.5-64.6 16.8-97.2 19-67.6 7.4-135.1-6.2-191.7-41.5-26.1-14.5-50-32.6-71.1-53.7-138-138-125.8-373.8 27.2-526.7 107.5-107.6 256-145.6 382.7-110.7-84.8 2.7-171.8 38.6-239.9 106.7-1.7 1.8-3.5 3.5-5.2 5.3z m-0.8 209c-54.5 54.5-54.5 142.9 0 197.5 54.5 54.5 142.9 54.5 197.5 0 54.5-54.5 54.5-142.9 0-197.5-54.5-54.5-142.9-54.5-197.5 0z m0 0" fill="#72AEFD" p-id="1989"></path></svg>