<?xml version="1.0" standalone="no"?><!DOCTYPE svg PUBLIC "-//W3C//DTD SVG 1.1//EN" "http://www.w3.org/Graphics/SVG/1.1/DTD/svg11.dtd"><svg class="icon" width="64px" height="64.00px" viewBox="0 0 1024 1024" version="1.1" xmlns="http://www.w3.org/2000/svg"><path fill="#b4b4b4" d="M704 294.016l0 584L188 878.016 188 294.016 704 294.016M704 230.016 188 230.016c-35.2 0-64 28.8-64 64l0 584c0 35.2 28.8 64 64 64L704 942.016c35.2 0 64-28.8 64-64L768 294.016C768 258.784 739.2 230.016 704 230.016L704 230.016zM308 458.016l272 0c17.664 0 32-14.336 32-32 0-17.664-14.336-32-32-32l-272 0c-17.664 0-32 14.336-32 32C276 443.68 290.336 458.016 308 458.016zM580 554.016l-272 0c-17.664 0-32 14.336-32 32 0 17.664 14.336 32 32 32l272 0c17.664 0 32-14.336 32-32C612 568.32 597.664 554.016 580 554.016zM580 714.016l-272 0c-17.664 0-32 14.336-32 32 0 17.664 14.336 32 32 32l272 0c17.664 0 32-14.336 32-32C612 728.32 597.664 714.016 580 714.016zM860 82.016 344 82.016c-32.416 0-55.776 21.152-59.296 52L284 134.016l0 20L284.8 154.016c2.048 15.68 14.944 28 31.2 28s29.152-12.32 31.2-28l0.8 0 0-8 503.008 0c4.96 0 8.992 4.032 8.992 8.992l0 575.008-16 0 0 0.8c-15.712 2.048-28 14.944-28 31.2 0 16.256 12.288 29.152 28 31.2l0 0.8 24 0 0-0.8c31.424-4 56-30.72 56-63.2L924 146.016C924 110.816 895.2 82.016 860 82.016z" /></svg>