<?xml version="1.0" standalone="no"?><!DOCTYPE svg PUBLIC "-//W3C//DTD SVG 1.1//EN" "http://www.w3.org/Graphics/SVG/1.1/DTD/svg11.dtd"><svg t="1626448026106" class="icon" viewBox="0 0 1024 1024" version="1.1" xmlns="http://www.w3.org/2000/svg" p-id="1075" xmlns:xlink="http://www.w3.org/1999/xlink" width="64" height="64"><defs><style type="text/css"></style></defs><path d="M512.91 511.8m-250 0a250 250 0 1 0 500 0 250 250 0 1 0-500 0Z" fill="#FFCE54" p-id="1076"></path><path d="M512.91 63.87v100M512.91 193.87c-16.57 0-30-13.43-30-30v-100c0-16.57 13.43-30 30-30s30 13.43 30 30v100c0 16.57-13.43 30-30 30zM195.06 195.06l70.71 70.71M265.77 295.77c-7.68 0-15.36-2.93-21.21-8.79l-70.71-70.71c-11.72-11.72-11.72-30.71 0-42.43 11.72-11.72 30.71-11.72 42.43 0l70.71 70.71c11.72 11.72 11.72 30.71 0 42.43-5.86 5.87-13.54 8.79-21.22 8.79zM512.91 859.73v100M512.91 989.73c-16.57 0-30-13.43-30-30v-100c0-16.57 13.43-30 30-30s30 13.43 30 30v100c0 16.57-13.43 30-30 30zM262.55 761.45l-70.71 70.71M191.84 862.16c-7.68 0-15.36-2.93-21.21-8.79-11.72-11.71-11.72-30.71 0-42.43l70.71-70.71c11.72-11.72 30.71-11.72 42.43 0 11.72 11.71 11.72 30.71 0 42.43l-70.71 70.71c-5.86 5.86-13.54 8.79-21.22 8.79z" fill="#FFCE54" p-id="1077"></path><path d="M164.21 513.22h-100M164.21 543.22h-100c-16.57 0-30-13.43-30-30s13.43-30 30-30h100c16.57 0 30 13.43 30 30s-13.43 30-30 30z" fill="#FFCE54" p-id="1078"></path><path d="M754.31 754.31l70.71 70.71M825.02 865.02c-10.24 0-20.47-3.91-28.28-11.72l-70.71-70.71c-15.62-15.62-15.62-40.95 0-56.57s40.95-15.62 56.57 0l70.71 70.71c15.62 15.62 15.62 40.95 0 56.57-7.81 7.82-18.05 11.72-28.29 11.72z" fill="#FFCE54" p-id="1079"></path><path d="M859.33 513.22h100M959.33 543.22h-100c-16.57 0-30-13.43-30-30s13.43-30 30-30h100c16.57 0 30 13.43 30 30s-13.43 30-30 30z" fill="#FFCE54" p-id="1080"></path><path d="M755.46 264.36l70.72-70.71M755.46 294.36c-7.68 0-15.35-2.93-21.21-8.79-11.72-11.72-11.72-30.71 0-42.43l70.71-70.71c11.71-11.72 30.71-11.72 42.43 0 11.72 11.72 11.72 30.71 0 42.43l-70.71 70.71c-5.86 5.86-13.54 8.79-21.22 8.79z" fill="#FFCE54" p-id="1081"></path></svg>