<?xml version="1.0" standalone="no"?><!DOCTYPE svg PUBLIC "-//W3C//DTD SVG 1.1//EN" "http://www.w3.org/Graphics/SVG/1.1/DTD/svg11.dtd"><svg class="icon" width="64px" height="57.59px" viewBox="0 0 1138 1024" version="1.1" xmlns="http://www.w3.org/2000/svg"><path fill="#ffffff" d="M1128.332969 381.951576L595.85356 7.964436a43.463063 43.463063 0 0 0-50.631055 0L9.329767 381.951576c-17.521758 11.832876-8.760879 38.684401 13.198208 38.684401h107.633658v581.858909c0 11.832876 9.898656 21.503976 21.959087 21.503976h263.50904a21.845309 21.845309 0 0 0 21.959087-21.617754V679.252579h263.622818v323.128529c0 11.946653 9.898656 21.617754 21.959087 21.617754h263.509041a21.845309 21.845309 0 0 0 21.959086-21.617754V420.863532h107.633658c20.935088 0 29.582189-26.965303 12.060432-38.798179z" /></svg>