<?xml version="1.0" standalone="no"?><!DOCTYPE svg PUBLIC "-//W3C//DTD SVG 1.1//EN" "http://www.w3.org/Graphics/SVG/1.1/DTD/svg11.dtd"><svg class="icon" width="64px" height="64.00px" viewBox="0 0 1024 1024" version="1.1" xmlns="http://www.w3.org/2000/svg"><path d="M783.26 672.56H657.38c-96.91 0-176.21-79.29-176.21-176.21 0-96.91 79.29-176.21 176.21-176.21h125.88c96.91 0 176.21 79.29 176.21 176.21-0.01 96.91-79.3 176.21-176.21 176.21z" fill="#AFC9E2" /><path d="M776.91 348.82c3.05-15.19 4.65-30.9 4.65-46.98 0-131.24-106.39-237.62-237.62-237.62S306.31 170.61 306.31 301.84c0 10.99 0.76 21.79 2.21 32.38-21.22-9.06-44.58-14.08-69.12-14.08-97.32 0-176.21 78.89-176.21 176.21 0 1.31 0.02 2.62 0.05 3.93-0.03 1.3-0.05 2.59-0.05 3.9 0 92.61 75.77 168.37 168.37 168.37h480.62c92.61 0 168.37-75.77 168.37-168.37 0.02-69.71-42.92-129.87-103.64-155.36z" fill="#C0DCFA" /><path d="M363.2 799.58c-15.62 15.62-40.95 15.62-56.57 0s-15.62-40.95 0-56.57 87.37-30.8 87.37-30.8-15.18 71.75-30.8 87.37zM672.53 799.58c-15.62 15.62-40.95 15.62-56.57 0s-15.62-40.95 0-56.57 87.37-30.8 87.37-30.8-15.17 71.75-30.8 87.37z" fill="#43A3FB" /></svg>