<?xml version="1.0" standalone="no"?><!DOCTYPE svg PUBLIC "-//W3C//DTD SVG 1.1//EN" "http://www.w3.org/Graphics/SVG/1.1/DTD/svg11.dtd"><svg class="icon" width="64px" height="64.00px" viewBox="0 0 1024 1024" version="1.1" xmlns="http://www.w3.org/2000/svg"><path fill="#ffffff" d="M1015.459508 218.198787c-4.479996-18.059982-27.079974-24.179976-40.23996-11.019989l-148.718855 148.719854-135.759868-22.619977-22.619977-135.759868 148.719854-148.719855c13.239987-13.239987 6.859993-35.799965-11.319989-40.31896C710.760806-14.999985 606.421908 10.29999 532.36198 84.339918c-79.279923 79.279923-101.099901 194.19881-68.099933 294.397712L37.486463 805.515213c-49.979951 49.979951-49.979951 131.019872 0 180.999824 49.979951 49.978951 131.019872 49.978951 180.998824 0l426.417583-426.418584c100.239902 33.419967 214.93879 11.359989 294.737712-68.439933 74.139928-74.138928 99.399903-178.638826 75.819926-273.457733zM128.004375 943.994078c-26.499974 0-47.999953-21.499979-47.999953-47.999953 0-26.519974 21.499979-47.999953 47.999953-47.999953s47.999953 21.479979 47.999953 47.999953c0 26.499974-21.499979 47.999953-47.999953 47.999953z" /></svg>